<mxfile host="app.diagrams.net" agent="Mozilla/5.0 (Macintosh; Intel Mac OS X 10_15_7) AppleWebKit/537.36 (KHTML, like Gecko) Chrome/131.0.0.0 Safari/537.36" version="24.8.9">
  <diagram name="Page-1" id="e7e014a7-5840-1c2e-5031-d8a46d1fe8dd">
    <mxGraphModel dx="1006" dy="756" grid="1" gridSize="10" guides="1" tooltips="1" connect="1" arrows="1" fold="1" page="1" pageScale="1" pageWidth="1169" pageHeight="826" background="none" math="0" shadow="0">
      <root>
        <mxCell id="0" />
        <mxCell id="1" parent="0" />
        <mxCell id="A7ZBr5MeigAs6pkjAYVT-44" style="edgeStyle=orthogonalEdgeStyle;rounded=0;orthogonalLoop=1;jettySize=auto;html=1;" edge="1" parent="1" source="A7ZBr5MeigAs6pkjAYVT-41">
          <mxGeometry relative="1" as="geometry">
            <mxPoint x="434.9999999999998" y="190" as="targetPoint" />
          </mxGeometry>
        </mxCell>
        <mxCell id="A7ZBr5MeigAs6pkjAYVT-41" value="&lt;div style=&quot;background-color:#2b2b2b;color:#a9b7c6;font-family:&#39;JetBrains Mono&#39;,monospace;font-size:12.0pt;&quot;&gt;&lt;pre&gt;IcebergSparkSessionExtensions&lt;/pre&gt;&lt;/div&gt;" style="html=1;whiteSpace=wrap;" vertex="1" parent="1">
          <mxGeometry x="270" y="30" width="330" height="70" as="geometry" />
        </mxCell>
        <mxCell id="A7ZBr5MeigAs6pkjAYVT-49" value="" style="edgeStyle=orthogonalEdgeStyle;rounded=0;orthogonalLoop=1;jettySize=auto;html=1;" edge="1" parent="1" source="A7ZBr5MeigAs6pkjAYVT-45" target="A7ZBr5MeigAs6pkjAYVT-47">
          <mxGeometry relative="1" as="geometry" />
        </mxCell>
        <mxCell id="A7ZBr5MeigAs6pkjAYVT-45" value="&lt;div style=&quot;background-color:#2b2b2b;color:#a9b7c6;font-family:&#39;JetBrains Mono&#39;,monospace;font-size:12.0pt;&quot;&gt;&lt;pre&gt;IcebergSparkSqlExtensionsParser&lt;/pre&gt;&lt;/div&gt;" style="html=1;whiteSpace=wrap;" vertex="1" parent="1">
          <mxGeometry x="270" y="140" width="330" height="60" as="geometry" />
        </mxCell>
        <mxCell id="A7ZBr5MeigAs6pkjAYVT-46" value="注入解析器" style="text;html=1;align=center;verticalAlign=middle;resizable=0;points=[];autosize=1;strokeColor=none;fillColor=none;" vertex="1" parent="1">
          <mxGeometry x="440" y="140" width="80" height="30" as="geometry" />
        </mxCell>
        <mxCell id="A7ZBr5MeigAs6pkjAYVT-53" value="" style="edgeStyle=orthogonalEdgeStyle;rounded=0;orthogonalLoop=1;jettySize=auto;html=1;" edge="1" parent="1" source="A7ZBr5MeigAs6pkjAYVT-47" target="A7ZBr5MeigAs6pkjAYVT-51">
          <mxGeometry relative="1" as="geometry" />
        </mxCell>
        <mxCell id="A7ZBr5MeigAs6pkjAYVT-57" value="" style="edgeStyle=orthogonalEdgeStyle;rounded=0;orthogonalLoop=1;jettySize=auto;html=1;" edge="1" parent="1" source="A7ZBr5MeigAs6pkjAYVT-47" target="A7ZBr5MeigAs6pkjAYVT-56">
          <mxGeometry relative="1" as="geometry" />
        </mxCell>
        <mxCell id="A7ZBr5MeigAs6pkjAYVT-47" value="&lt;div style=&quot;background-color:#2b2b2b;color:#a9b7c6;font-family:&#39;JetBrains Mono&#39;,monospace;font-size:12.0pt;&quot;&gt;&lt;pre&gt;&lt;div style=&quot;font-family: &amp;quot;JetBrains Mono&amp;quot;, monospace; font-size: 12pt;&quot;&gt;&lt;pre&gt;injectResolutionRule-&amp;gt;View &amp;amp; Update&lt;/pre&gt;&lt;/div&gt;&lt;/pre&gt;&lt;/div&gt;" style="html=1;whiteSpace=wrap;" vertex="1" parent="1">
          <mxGeometry x="270" y="240" width="330" height="60" as="geometry" />
        </mxCell>
        <mxCell id="A7ZBr5MeigAs6pkjAYVT-50" value="注入解析规则" style="text;html=1;align=center;verticalAlign=middle;resizable=0;points=[];autosize=1;strokeColor=none;fillColor=none;" vertex="1" parent="1">
          <mxGeometry x="440" y="200" width="100" height="30" as="geometry" />
        </mxCell>
        <mxCell id="A7ZBr5MeigAs6pkjAYVT-55" value="" style="edgeStyle=orthogonalEdgeStyle;rounded=0;orthogonalLoop=1;jettySize=auto;html=1;" edge="1" parent="1" source="A7ZBr5MeigAs6pkjAYVT-51" target="A7ZBr5MeigAs6pkjAYVT-54">
          <mxGeometry relative="1" as="geometry" />
        </mxCell>
        <mxCell id="A7ZBr5MeigAs6pkjAYVT-51" value="&lt;div style=&quot;background-color:#2b2b2b;color:#a9b7c6;font-family:&#39;JetBrains Mono&#39;,monospace;font-size:12.0pt;&quot;&gt;&lt;pre&gt;&lt;div style=&quot;font-family: &amp;quot;JetBrains Mono&amp;quot;, monospace; font-size: 12pt;&quot;&gt;&lt;pre&gt;&lt;div style=&quot;font-family: &amp;quot;JetBrains Mono&amp;quot;, monospace; font-size: 12pt;&quot;&gt;&lt;pre&gt;injectCheckRule -&amp;gt; checkView&lt;/pre&gt;&lt;/div&gt;&lt;/pre&gt;&lt;/div&gt;&lt;/pre&gt;&lt;/div&gt;" style="html=1;whiteSpace=wrap;" vertex="1" parent="1">
          <mxGeometry x="270" y="323" width="330" height="57" as="geometry" />
        </mxCell>
        <mxCell id="A7ZBr5MeigAs6pkjAYVT-54" value="&lt;div style=&quot;background-color:#2b2b2b;color:#a9b7c6;font-family:&#39;JetBrains Mono&#39;,monospace;font-size:12.0pt;&quot;&gt;&lt;pre&gt;injectOptimizerRule&lt;/pre&gt;&lt;/div&gt;" style="whiteSpace=wrap;html=1;" vertex="1" parent="1">
          <mxGeometry x="270" y="413" width="330" height="60" as="geometry" />
        </mxCell>
        <mxCell id="A7ZBr5MeigAs6pkjAYVT-59" value="" style="edgeStyle=orthogonalEdgeStyle;rounded=0;orthogonalLoop=1;jettySize=auto;html=1;" edge="1" parent="1" source="A7ZBr5MeigAs6pkjAYVT-56" target="A7ZBr5MeigAs6pkjAYVT-58">
          <mxGeometry relative="1" as="geometry" />
        </mxCell>
        <mxCell id="A7ZBr5MeigAs6pkjAYVT-56" value="&lt;div style=&quot;background-color:#2b2b2b;color:#a9b7c6;font-family:&#39;JetBrains Mono&#39;,monospace;font-size:12.0pt;&quot;&gt;&lt;pre&gt;AlignRowLevelCommandAssignments&lt;/pre&gt;&lt;/div&gt;" style="whiteSpace=wrap;html=1;" vertex="1" parent="1">
          <mxGeometry x="680" y="240" width="310" height="60" as="geometry" />
        </mxCell>
        <mxCell id="A7ZBr5MeigAs6pkjAYVT-58" value="&lt;div style=&quot;background-color:#2b2b2b;color:#a9b7c6;font-family:&#39;JetBrains Mono&#39;,monospace;font-size:12.0pt;&quot;&gt;&lt;pre&gt;MergeIntoIcebergTable&lt;/pre&gt;&lt;/div&gt;" style="whiteSpace=wrap;html=1;" vertex="1" parent="1">
          <mxGeometry x="1100" y="240" width="230" height="60" as="geometry" />
        </mxCell>
      </root>
    </mxGraphModel>
  </diagram>
</mxfile>
